<svg id="visual" viewBox="0 0 900 600" width="900" height="600" xmlns="http://www.w3.org/2000/svg" xmlns:xlink="http://www.w3.org/1999/xlink" version="1.1"><path d="M0 73L21.5 74C43 75 86 77 128.8 75C171.7 73 214.3 67 257.2 67C300 67 343 73 385.8 72C428.7 71 471.3 63 514.2 63C557 63 600 71 642.8 70C685.7 69 728.3 59 771.2 56C814 53 857 57 878.5 59L900 61L900 0L878.5 0C857 0 814 0 771.2 0C728.3 0 685.7 0 642.8 0C600 0 557 0 514.2 0C471.3 0 428.7 0 385.8 0C343 0 300 0 257.2 0C214.3 0 171.7 0 128.8 0C86 0 43 0 21.5 0L0 0Z" fill="#b2aadd"></path><path d="M0 145L21.5 141C43 137 86 129 128.8 123C171.7 117 214.3 113 257.2 115C300 117 343 125 385.8 130C428.7 135 471.3 137 514.2 142C557 147 600 155 642.8 150C685.7 145 728.3 127 771.2 118C814 109 857 109 878.5 109L900 109L900 59L878.5 57C857 55 814 51 771.2 54C728.3 57 685.7 67 642.8 68C600 69 557 61 514.2 61C471.3 61 428.7 69 385.8 70C343 71 300 65 257.2 65C214.3 65 171.7 71 128.8 73C86 75 43 73 21.5 72L0 71Z" fill="#b9b2e0"></path><path d="M0 301L21.5 296C43 291 86 281 128.8 277C171.7 273 214.3 275 257.2 274C300 273 343 269 385.8 270C428.7 271 471.3 277 514.2 287C557 297 600 311 642.8 316C685.7 321 728.3 317 771.2 299C814 281 857 249 878.5 233L900 217L900 107L878.5 107C857 107 814 107 771.2 116C728.3 125 685.7 143 642.8 148C600 153 557 145 514.2 140C471.3 135 428.7 133 385.8 128C343 123 300 115 257.2 113C214.3 111 171.7 115 128.8 121C86 127 43 135 21.5 139L0 143Z" fill="#c0bae3"></path><path d="M0 421L21.5 422C43 423 86 425 128.8 425C171.7 425 214.3 423 257.2 434C300 445 343 469 385.8 469C428.7 469 471.3 445 514.2 442C557 439 600 457 642.8 458C685.7 459 728.3 443 771.2 431C814 419 857 411 878.5 407L900 403L900 215L878.5 231C857 247 814 279 771.2 297C728.3 315 685.7 319 642.8 314C600 309 557 295 514.2 285C471.3 275 428.7 269 385.8 268C343 267 300 271 257.2 272C214.3 273 171.7 271 128.8 275C86 279 43 289 21.5 294L0 299Z" fill="#c7c2e7"></path><path d="M0 547L21.5 547C43 547 86 547 128.8 548C171.7 549 214.3 551 257.2 552C300 553 343 553 385.8 550C428.7 547 471.3 541 514.2 537C557 533 600 531 642.8 529C685.7 527 728.3 525 771.2 525C814 525 857 527 878.5 528L900 529L900 401L878.5 405C857 409 814 417 771.2 429C728.3 441 685.7 457 642.8 456C600 455 557 437 514.2 440C471.3 443 428.7 467 385.8 467C343 467 300 443 257.2 432C214.3 421 171.7 423 128.8 423C86 423 43 421 21.5 420L0 419Z" fill="#cecbea"></path><path d="M0 601L21.5 601C43 601 86 601 128.8 601C171.7 601 214.3 601 257.2 601C300 601 343 601 385.8 601C428.7 601 471.3 601 514.2 601C557 601 600 601 642.8 601C685.7 601 728.3 601 771.2 601C814 601 857 601 878.5 601L900 601L900 527L878.5 526C857 525 814 523 771.2 523C728.3 523 685.7 525 642.8 527C600 529 557 531 514.2 535C471.3 539 428.7 545 385.8 548C343 551 300 551 257.2 550C214.3 549 171.7 547 128.8 546C86 545 43 545 21.5 545L0 545Z" fill="#d5d3ee"></path></svg>