<svg id="visual" viewBox="0 0 900 600" width="900" height="600" xmlns="http://www.w3.org/2000/svg" xmlns:xlink="http://www.w3.org/1999/xlink" version="1.1"><path d="M0 97L13.7 88C27.3 79 54.7 61 82 55C109.3 49 136.7 55 163.8 65C191 75 218 89 245.2 86C272.3 83 299.7 63 327 57C354.3 51 381.7 59 409 59C436.3 59 463.7 51 491 46C518.3 41 545.7 39 573 45C600.3 51 627.7 65 654.8 69C682 73 709 67 736.2 67C763.3 67 790.7 73 818 79C845.3 85 872.7 91 886.3 94L900 97L900 0L886.3 0C872.7 0 845.3 0 818 0C790.7 0 763.3 0 736.2 0C709 0 682 0 654.8 0C627.7 0 600.3 0 573 0C545.7 0 518.3 0 491 0C463.7 0 436.3 0 409 0C381.7 0 354.3 0 327 0C299.7 0 272.3 0 245.2 0C218 0 191 0 163.8 0C136.7 0 109.3 0 82 0C54.7 0 27.3 0 13.7 0L0 0Z" fill="#2f416a"></path><path d="M0 223L13.7 212C27.3 201 54.7 179 82 165C109.3 151 136.7 145 163.8 153C191 161 218 183 245.2 182C272.3 181 299.7 157 327 150C354.3 143 381.7 153 409 157C436.3 161 463.7 159 491 150C518.3 141 545.7 125 573 134C600.3 143 627.7 177 654.8 178C682 179 709 147 736.2 136C763.3 125 790.7 135 818 151C845.3 167 872.7 189 886.3 200L900 211L900 95L886.3 92C872.7 89 845.3 83 818 77C790.7 71 763.3 65 736.2 65C709 65 682 71 654.8 67C627.7 63 600.3 49 573 43C545.7 37 518.3 39 491 44C463.7 49 436.3 57 409 57C381.7 57 354.3 49 327 55C299.7 61 272.3 81 245.2 84C218 87 191 73 163.8 63C136.7 53 109.3 47 82 53C54.7 59 27.3 77 13.7 86L0 95Z" fill="#213153"></path><path d="M0 433L13.7 426C27.3 419 54.7 405 82 395C109.3 385 136.7 379 163.8 376C191 373 218 373 245.2 374C272.3 375 299.7 377 327 368C354.3 359 381.7 339 409 339C436.3 339 463.7 359 491 367C518.3 375 545.7 371 573 368C600.3 365 627.7 363 654.8 338C682 313 709 265 736.2 258C763.3 251 790.7 285 818 321C845.3 357 872.7 395 886.3 414L900 433L900 209L886.3 198C872.7 187 845.3 165 818 149C790.7 133 763.3 123 736.2 134C709 145 682 177 654.8 176C627.7 175 600.3 141 573 132C545.7 123 518.3 139 491 148C463.7 157 436.3 159 409 155C381.7 151 354.3 141 327 148C299.7 155 272.3 179 245.2 180C218 181 191 159 163.8 151C136.7 143 109.3 149 82 163C54.7 177 27.3 199 13.7 210L0 221Z" fill="#14213d"></path><path d="M0 511L13.7 511C27.3 511 54.7 511 82 512C109.3 513 136.7 515 163.8 515C191 515 218 513 245.2 505C272.3 497 299.7 483 327 482C354.3 481 381.7 493 409 496C436.3 499 463.7 493 491 487C518.3 481 545.7 475 573 487C600.3 499 627.7 529 654.8 530C682 531 709 503 736.2 490C763.3 477 790.7 479 818 490C845.3 501 872.7 521 886.3 531L900 541L900 431L886.3 412C872.7 393 845.3 355 818 319C790.7 283 763.3 249 736.2 256C709 263 682 311 654.8 336C627.7 361 600.3 363 573 366C545.7 369 518.3 373 491 365C463.7 357 436.3 337 409 337C381.7 337 354.3 357 327 366C299.7 375 272.3 373 245.2 372C218 371 191 371 163.8 374C136.7 377 109.3 383 82 393C54.7 403 27.3 417 13.7 424L0 431Z" fill="#121d35"></path><path d="M0 601L13.7 601C27.3 601 54.7 601 82 601C109.3 601 136.7 601 163.8 601C191 601 218 601 245.2 601C272.3 601 299.7 601 327 601C354.3 601 381.7 601 409 601C436.3 601 463.7 601 491 601C518.3 601 545.7 601 573 601C600.3 601 627.7 601 654.8 601C682 601 709 601 736.2 601C763.3 601 790.7 601 818 601C845.3 601 872.7 601 886.3 601L900 601L900 539L886.3 529C872.7 519 845.3 499 818 488C790.7 477 763.3 475 736.2 488C709 501 682 529 654.8 528C627.7 527 600.3 497 573 485C545.7 473 518.3 479 491 485C463.7 491 436.3 497 409 494C381.7 491 354.3 479 327 480C299.7 481 272.3 495 245.2 503C218 511 191 513 163.8 513C136.7 513 109.3 511 82 510C54.7 509 27.3 509 13.7 509L0 509Z" fill="#111a2e"></path></svg>