<svg id="visual" viewBox="0 0 900 600" width="900" height="600" xmlns="http://www.w3.org/2000/svg" xmlns:xlink="http://www.w3.org/1999/xlink" version="1.1"><path d="M0 13L10.7 13C21.3 13 42.7 13 64.2 17C85.7 21 107.3 29 128.8 31C150.3 33 171.7 29 193 29C214.3 29 235.7 33 257 33C278.3 33 299.7 29 321.2 27C342.7 25 364.3 25 385.8 31C407.3 37 428.7 49 450 52C471.3 55 492.7 49 514.2 48C535.7 47 557.3 51 578.8 48C600.3 45 621.7 35 643 35C664.3 35 685.7 45 707 47C728.3 49 749.7 43 771.2 43C792.7 43 814.3 49 835.8 47C857.3 45 878.7 35 889.3 30L900 25L900 0L889.3 0C878.7 0 857.3 0 835.8 0C814.3 0 792.7 0 771.2 0C749.7 0 728.3 0 707 0C685.7 0 664.3 0 643 0C621.7 0 600.3 0 578.8 0C557.3 0 535.7 0 514.2 0C492.7 0 471.3 0 450 0C428.7 0 407.3 0 385.8 0C364.3 0 342.7 0 321.2 0C299.7 0 278.3 0 257 0C235.7 0 214.3 0 193 0C171.7 0 150.3 0 128.8 0C107.3 0 85.7 0 64.2 0C42.7 0 21.3 0 10.7 0L0 0Z" fill="#f6f8fd"></path><path d="M0 67L10.7 68C21.3 69 42.7 71 64.2 71C85.7 71 107.3 69 128.8 70C150.3 71 171.7 75 193 72C214.3 69 235.7 59 257 60C278.3 61 299.7 73 321.2 74C342.7 75 364.3 65 385.8 67C407.3 69 428.7 83 450 83C471.3 83 492.7 69 514.2 69C535.7 69 557.3 83 578.8 86C600.3 89 621.7 81 643 83C664.3 85 685.7 97 707 100C728.3 103 749.7 97 771.2 92C792.7 87 814.3 83 835.8 74C857.3 65 878.7 51 889.3 44L900 37L900 23L889.3 28C878.7 33 857.3 43 835.8 45C814.3 47 792.7 41 771.2 41C749.7 41 728.3 47 707 45C685.7 43 664.3 33 643 33C621.7 33 600.3 43 578.8 46C557.3 49 535.7 45 514.2 46C492.7 47 471.3 53 450 50C428.7 47 407.3 35 385.8 29C364.3 23 342.7 23 321.2 25C299.7 27 278.3 31 257 31C235.7 31 214.3 27 193 27C171.7 27 150.3 31 128.8 29C107.3 27 85.7 19 64.2 15C42.7 11 21.3 11 10.7 11L0 11Z" fill="#f5f7fd"></path><path d="M0 97L10.7 103C21.3 109 42.7 121 64.2 128C85.7 135 107.3 137 128.8 134C150.3 131 171.7 123 193 120C214.3 117 235.7 119 257 118C278.3 117 299.7 113 321.2 110C342.7 107 364.3 105 385.8 108C407.3 111 428.7 119 450 115C471.3 111 492.7 95 514.2 99C535.7 103 557.3 127 578.8 135C600.3 143 621.7 135 643 132C664.3 129 685.7 131 707 137C728.3 143 749.7 153 771.2 152C792.7 151 814.3 139 835.8 122C857.3 105 878.7 83 889.3 72L900 61L900 35L889.3 42C878.7 49 857.3 63 835.8 72C814.3 81 792.7 85 771.2 90C749.7 95 728.3 101 707 98C685.7 95 664.3 83 643 81C621.7 79 600.3 87 578.8 84C557.3 81 535.7 67 514.2 67C492.7 67 471.3 81 450 81C428.7 81 407.3 67 385.8 65C364.3 63 342.7 73 321.2 72C299.7 71 278.3 59 257 58C235.7 57 214.3 67 193 70C171.7 73 150.3 69 128.8 68C107.3 67 85.7 69 64.2 69C42.7 69 21.3 67 10.7 66L0 65Z" fill="#f4f6fd"></path><path d="M0 199L10.7 203C21.3 207 42.7 215 64.2 216C85.7 217 107.3 211 128.8 207C150.3 203 171.7 201 193 198C214.3 195 235.7 191 257 182C278.3 173 299.7 159 321.2 153C342.7 147 364.3 149 385.8 162C407.3 175 428.7 199 450 204C471.3 209 492.7 195 514.2 192C535.7 189 557.3 197 578.8 192C600.3 187 621.7 169 643 171C664.3 173 685.7 195 707 204C728.3 213 749.7 209 771.2 203C792.7 197 814.3 189 835.8 169C857.3 149 878.7 117 889.3 101L900 85L900 59L889.3 70C878.7 81 857.3 103 835.8 120C814.3 137 792.7 149 771.2 150C749.7 151 728.3 141 707 135C685.7 129 664.3 127 643 130C621.7 133 600.3 141 578.8 133C557.3 125 535.7 101 514.2 97C492.7 93 471.3 109 450 113C428.7 117 407.3 109 385.8 106C364.3 103 342.7 105 321.2 108C299.7 111 278.3 115 257 116C235.7 117 214.3 115 193 118C171.7 121 150.3 129 128.8 132C107.3 135 85.7 133 64.2 126C42.7 119 21.3 107 10.7 101L0 95Z" fill="#f3f6fc"></path><path d="M0 307L10.7 306C21.3 305 42.7 303 64.2 293C85.7 283 107.3 265 128.8 257C150.3 249 171.7 251 193 256C214.3 261 235.7 269 257 261C278.3 253 299.7 229 321.2 232C342.7 235 364.3 265 385.8 276C407.3 287 428.7 279 450 268C471.3 257 492.7 243 514.2 239C535.7 235 557.3 241 578.8 238C600.3 235 621.7 223 643 237C664.3 251 685.7 291 707 307C728.3 323 749.7 315 771.2 297C792.7 279 814.3 251 835.8 229C857.3 207 878.7 191 889.3 183L900 175L900 83L889.3 99C878.7 115 857.3 147 835.8 167C814.3 187 792.7 195 771.2 201C749.7 207 728.3 211 707 202C685.7 193 664.3 171 643 169C621.7 167 600.3 185 578.8 190C557.3 195 535.7 187 514.2 190C492.7 193 471.3 207 450 202C428.7 197 407.3 173 385.8 160C364.3 147 342.7 145 321.2 151C299.7 157 278.3 171 257 180C235.7 189 214.3 193 193 196C171.7 199 150.3 201 128.8 205C107.3 209 85.7 215 64.2 214C42.7 213 21.3 205 10.7 201L0 197Z" fill="#f2f5fc"></path><path d="M0 391L10.7 385C21.3 379 42.7 367 64.2 352C85.7 337 107.3 319 128.8 315C150.3 311 171.7 321 193 331C214.3 341 235.7 351 257 357C278.3 363 299.7 365 321.2 368C342.7 371 364.3 375 385.8 369C407.3 363 428.7 347 450 350C471.3 353 492.7 375 514.2 373C535.7 371 557.3 345 578.8 346C600.3 347 621.7 375 643 394C664.3 413 685.7 423 707 416C728.3 409 749.7 385 771.2 385C792.7 385 814.3 409 835.8 399C857.3 389 878.7 345 889.3 323L900 301L900 173L889.3 181C878.7 189 857.3 205 835.8 227C814.3 249 792.7 277 771.2 295C749.7 313 728.3 321 707 305C685.7 289 664.3 249 643 235C621.7 221 600.3 233 578.8 236C557.3 239 535.7 233 514.2 237C492.7 241 471.3 255 450 266C428.7 277 407.3 285 385.8 274C364.3 263 342.7 233 321.2 230C299.7 227 278.3 251 257 259C235.7 267 214.3 259 193 254C171.7 249 150.3 247 128.8 255C107.3 263 85.7 281 64.2 291C42.7 301 21.3 303 10.7 304L0 305Z" fill="#ebf0fb"></path><path d="M0 415L10.7 412C21.3 409 42.7 403 64.2 393C85.7 383 107.3 369 128.8 363C150.3 357 171.7 359 193 367C214.3 375 235.7 389 257 395C278.3 401 299.7 399 321.2 398C342.7 397 364.3 397 385.8 394C407.3 391 428.7 385 450 393C471.3 401 492.7 423 514.2 425C535.7 427 557.3 409 578.8 407C600.3 405 621.7 419 643 431C664.3 443 685.7 453 707 453C728.3 453 749.7 443 771.2 448C792.7 453 814.3 473 835.8 461C857.3 449 878.7 405 889.3 383L900 361L900 299L889.3 321C878.7 343 857.3 387 835.8 397C814.3 407 792.7 383 771.2 383C749.7 383 728.3 407 707 414C685.7 421 664.3 411 643 392C621.7 373 600.3 345 578.8 344C557.3 343 535.7 369 514.2 371C492.7 373 471.3 351 450 348C428.7 345 407.3 361 385.8 367C364.3 373 342.7 369 321.2 366C299.7 363 278.3 361 257 355C235.7 349 214.3 339 193 329C171.7 319 150.3 309 128.8 313C107.3 317 85.7 335 64.2 350C42.7 365 21.3 377 10.7 383L0 389Z" fill="#e4eaf9"></path><path d="M0 547L10.7 552C21.3 557 42.7 567 64.2 574C85.7 581 107.3 585 128.8 580C150.3 575 171.7 561 193 556C214.3 551 235.7 555 257 560C278.3 565 299.7 571 321.2 572C342.7 573 364.3 569 385.8 570C407.3 571 428.7 577 450 576C471.3 575 492.7 567 514.2 561C535.7 555 557.3 551 578.8 550C600.3 549 621.7 551 643 554C664.3 557 685.7 561 707 567C728.3 573 749.7 581 771.2 585C792.7 589 814.3 589 835.8 583C857.3 577 878.7 565 889.3 559L900 553L900 359L889.3 381C878.7 403 857.3 447 835.8 459C814.3 471 792.7 451 771.2 446C749.7 441 728.3 451 707 451C685.7 451 664.3 441 643 429C621.7 417 600.3 403 578.8 405C557.3 407 535.7 425 514.2 423C492.7 421 471.3 399 450 391C428.7 383 407.3 389 385.8 392C364.3 395 342.7 395 321.2 396C299.7 397 278.3 399 257 393C235.7 387 214.3 373 193 365C171.7 357 150.3 355 128.8 361C107.3 367 85.7 381 64.2 391C42.7 401 21.3 407 10.7 410L0 413Z" fill="#dee5f8"></path><path d="M0 601L10.7 601C21.3 601 42.7 601 64.2 601C85.7 601 107.3 601 128.8 601C150.3 601 171.7 601 193 601C214.3 601 235.7 601 257 601C278.3 601 299.7 601 321.2 601C342.7 601 364.3 601 385.8 601C407.3 601 428.7 601 450 601C471.3 601 492.7 601 514.2 601C535.7 601 557.3 601 578.8 601C600.3 601 621.7 601 643 601C664.3 601 685.7 601 707 601C728.3 601 749.7 601 771.2 601C792.7 601 814.3 601 835.8 601C857.3 601 878.7 601 889.3 601L900 601L900 551L889.3 557C878.7 563 857.3 575 835.8 581C814.3 587 792.7 587 771.2 583C749.7 579 728.3 571 707 565C685.7 559 664.3 555 643 552C621.7 549 600.3 547 578.8 548C557.3 549 535.7 553 514.2 559C492.7 565 471.3 573 450 574C428.7 575 407.3 569 385.8 568C364.3 567 342.7 571 321.2 570C299.7 569 278.3 563 257 558C235.7 553 214.3 549 193 554C171.7 559 150.3 573 128.8 578C107.3 583 85.7 579 64.2 572C42.7 565 21.3 555 10.7 550L0 545Z" fill="#d7e0f6"></path></svg>